<svg width="1000" height="746" viewBox="0 0 1000 746" fill="none" xmlns="http://www.w3.org/2000/svg">
<g clip-path="url(#clip0_36_141)">
<path d="M0 566.145C11.041 579.564 22.983 592.174 35.7388 603.884L964.261 605.188C977.017 593.478 988.959 580.867 1000 567.449L0 566.145Z" fill="#3F3D56"/>
<path d="M629.661 445.301V557.026C629.662 558.45 630.214 559.815 631.196 560.822C632.177 561.828 633.508 562.394 634.896 562.396H796.311C797.699 562.394 799.03 561.828 800.012 560.822C800.993 559.815 801.545 558.45 801.546 557.026V445.301C801.543 443.879 800.99 442.515 800.009 441.51C799.028 440.505 797.698 439.939 796.311 439.938H634.896C633.509 439.939 632.18 440.505 631.198 441.51C630.217 442.515 629.664 443.879 629.661 445.301Z" fill="#3F3D56"/>
<path d="M633.448 446.691V555.647C633.449 556.408 633.744 557.137 634.269 557.675C634.793 558.213 635.504 558.516 636.246 558.517H794.967C795.709 558.516 796.42 558.213 796.944 557.675C797.469 557.137 797.764 556.408 797.765 555.647V446.691C797.765 445.93 797.47 445.199 796.946 444.66C796.421 444.121 795.71 443.817 794.967 443.815H636.246C635.503 443.817 634.792 444.121 634.267 444.66C633.742 445.199 633.448 445.93 633.448 446.691Z" fill="#00B0FF"/>
<path d="M626.285 578.815C626.581 579.195 626.957 579.502 627.385 579.712C627.813 579.922 628.281 580.03 628.755 580.027H801.593C802.066 580.027 802.532 579.918 802.959 579.709C803.385 579.5 803.761 579.197 804.059 578.82C804.357 578.443 804.569 578.004 804.68 577.532C804.791 577.061 804.799 576.57 804.702 576.096L802.019 563.025C801.908 562.492 801.668 561.995 801.322 561.582C800.976 561.168 800.535 560.849 800.038 560.655C799.679 560.51 799.296 560.436 798.91 560.437H631.428C631.042 560.436 630.659 560.51 630.299 560.655C629.803 560.849 629.361 561.168 629.015 561.582C628.669 561.995 628.43 562.492 628.319 563.025L625.636 576.096C625.54 576.57 625.549 577.06 625.662 577.531C625.774 578.001 625.987 578.44 626.285 578.815Z" fill="#2F2E41"/>
<path d="M792.979 566.066H797.062C797.404 566.066 797.682 565.781 797.682 565.43V563.427C797.682 563.075 797.404 562.79 797.062 562.79H792.979C792.637 562.79 792.359 563.075 792.359 563.427V565.43C792.359 565.781 792.637 566.066 792.979 566.066Z" fill="#3F3D56"/>
<path d="M782.333 566.066H786.415C786.758 566.066 787.036 565.781 787.036 565.43V563.427C787.036 563.075 786.758 562.79 786.415 562.79H782.333C781.99 562.79 781.712 563.075 781.712 563.427V565.43C781.712 565.781 781.99 566.066 782.333 566.066Z" fill="#3F3D56"/>
<path d="M771.686 566.066H775.768C776.111 566.066 776.389 565.781 776.389 565.43V563.427C776.389 563.075 776.111 562.79 775.768 562.79H771.686C771.343 562.79 771.065 563.075 771.065 563.427V565.43C771.065 565.781 771.343 566.066 771.686 566.066Z" fill="#3F3D56"/>
<path d="M761.039 566.066H765.122C765.464 566.066 765.742 565.781 765.742 565.43V563.427C765.742 563.075 765.464 562.79 765.122 562.79H761.039C760.697 562.79 760.419 563.075 760.419 563.427V565.43C760.419 565.781 760.697 566.066 761.039 566.066Z" fill="#3F3D56"/>
<path d="M750.393 566.066H754.475C754.818 566.066 755.096 565.781 755.096 565.43V563.427C755.096 563.075 754.818 562.79 754.475 562.79H750.393C750.05 562.79 749.772 563.075 749.772 563.427V565.43C749.772 565.781 750.05 566.066 750.393 566.066Z" fill="#3F3D56"/>
<path d="M739.746 566.066H743.829C744.171 566.066 744.449 565.781 744.449 565.43V563.427C744.449 563.075 744.171 562.79 743.829 562.79H739.746C739.404 562.79 739.126 563.075 739.126 563.427V565.43C739.126 565.781 739.404 566.066 739.746 566.066Z" fill="#3F3D56"/>
<path d="M729.099 566.066H733.182C733.524 566.066 733.802 565.781 733.802 565.43V563.427C733.802 563.075 733.524 562.79 733.182 562.79H729.099C728.757 562.79 728.479 563.075 728.479 563.427V565.43C728.479 565.781 728.757 566.066 729.099 566.066Z" fill="#3F3D56"/>
<path d="M718.453 566.066H722.535C722.878 566.066 723.156 565.781 723.156 565.43V563.427C723.156 563.075 722.878 562.79 722.535 562.79H718.453C718.11 562.79 717.832 563.075 717.832 563.427V565.43C717.832 565.781 718.11 566.066 718.453 566.066Z" fill="#3F3D56"/>
<path d="M707.806 566.066H711.889C712.232 566.066 712.509 565.781 712.509 565.43V563.427C712.509 563.075 712.232 562.79 711.889 562.79H707.806C707.464 562.79 707.186 563.075 707.186 563.427V565.43C707.186 565.781 707.464 566.066 707.806 566.066Z" fill="#3F3D56"/>
<path d="M697.159 566.066H701.242C701.584 566.066 701.862 565.781 701.862 565.43V563.427C701.862 563.075 701.584 562.79 701.242 562.79H697.159C696.817 562.79 696.539 563.075 696.539 563.427V565.43C696.539 565.781 696.817 566.066 697.159 566.066Z" fill="#3F3D56"/>
<path d="M686.513 566.066H690.595C690.938 566.066 691.216 565.781 691.216 565.43V563.427C691.216 563.075 690.938 562.79 690.595 562.79H686.513C686.17 562.79 685.893 563.075 685.893 563.427V565.43C685.893 565.781 686.17 566.066 686.513 566.066Z" fill="#3F3D56"/>
<path d="M675.866 566.066H679.949C680.292 566.066 680.569 565.781 680.569 565.43V563.427C680.569 563.075 680.292 562.79 679.949 562.79H675.866C675.524 562.79 675.246 563.075 675.246 563.427V565.43C675.246 565.781 675.524 566.066 675.866 566.066Z" fill="#3F3D56"/>
<path d="M665.22 566.066H669.302C669.645 566.066 669.923 565.781 669.923 565.43V563.427C669.923 563.075 669.645 562.79 669.302 562.79H665.22C664.877 562.79 664.599 563.075 664.599 563.427V565.43C664.599 565.781 664.877 566.066 665.22 566.066Z" fill="#3F3D56"/>
<path d="M654.573 566.066H658.655C658.998 566.066 659.276 565.781 659.276 565.43V563.427C659.276 563.075 658.998 562.79 658.655 562.79H654.573C654.23 562.79 653.952 563.075 653.952 563.427V565.43C653.952 565.781 654.23 566.066 654.573 566.066Z" fill="#3F3D56"/>
<path d="M643.927 566.066H648.009C648.352 566.066 648.629 565.781 648.629 565.43V563.427C648.629 563.075 648.352 562.79 648.009 562.79H643.927C643.584 562.79 643.306 563.075 643.306 563.427V565.43C643.306 565.781 643.584 566.066 643.927 566.066Z" fill="#3F3D56"/>
<path d="M633.28 566.066H637.362C637.705 566.066 637.982 565.781 637.982 565.43V563.427C637.982 563.075 637.705 562.79 637.362 562.79H633.28C632.937 562.79 632.659 563.075 632.659 563.427V565.43C632.659 565.781 632.937 566.066 633.28 566.066Z" fill="#3F3D56"/>
<path d="M793.105 571.527H797.188C797.53 571.527 797.808 571.242 797.808 570.89V568.887C797.808 568.536 797.53 568.251 797.188 568.251H793.105C792.763 568.251 792.485 568.536 792.485 568.887V570.89C792.485 571.242 792.763 571.527 793.105 571.527Z" fill="#3F3D56"/>
<path d="M782.458 571.527H786.541C786.883 571.527 787.161 571.242 787.161 570.89V568.887C787.161 568.536 786.883 568.251 786.541 568.251H782.458C782.116 568.251 781.838 568.536 781.838 568.887V570.89C781.838 571.242 782.116 571.527 782.458 571.527Z" fill="#3F3D56"/>
<path d="M771.812 571.527H775.894C776.237 571.527 776.515 571.242 776.515 570.89V568.887C776.515 568.536 776.237 568.251 775.894 568.251H771.812C771.469 568.251 771.191 568.536 771.191 568.887V570.89C771.191 571.242 771.469 571.527 771.812 571.527Z" fill="#3F3D56"/>
<path d="M761.165 571.527H765.248C765.59 571.527 765.868 571.242 765.868 570.89V568.887C765.868 568.536 765.59 568.251 765.248 568.251H761.165C760.823 568.251 760.545 568.536 760.545 568.887V570.89C760.545 571.242 760.823 571.527 761.165 571.527Z" fill="#3F3D56"/>
<path d="M750.519 571.527H754.601C754.944 571.527 755.222 571.242 755.222 570.89V568.887C755.222 568.536 754.944 568.251 754.601 568.251H750.519C750.176 568.251 749.898 568.536 749.898 568.887V570.89C749.898 571.242 750.176 571.527 750.519 571.527Z" fill="#3F3D56"/>
<path d="M739.872 571.527H743.954C744.297 571.527 744.575 571.242 744.575 570.89V568.887C744.575 568.536 744.297 568.251 743.954 568.251H739.872C739.529 568.251 739.251 568.536 739.251 568.887V570.89C739.251 571.242 739.529 571.527 739.872 571.527Z" fill="#3F3D56"/>
<path d="M729.225 571.527H733.308C733.65 571.527 733.928 571.242 733.928 570.89V568.887C733.928 568.536 733.65 568.251 733.308 568.251H729.225C728.883 568.251 728.605 568.536 728.605 568.887V570.89C728.605 571.242 728.883 571.527 729.225 571.527Z" fill="#3F3D56"/>
<path d="M718.579 571.527H722.661C723.004 571.527 723.282 571.242 723.282 570.89V568.887C723.282 568.536 723.004 568.251 722.661 568.251H718.579C718.236 568.251 717.958 568.536 717.958 568.887V570.89C717.958 571.242 718.236 571.527 718.579 571.527Z" fill="#3F3D56"/>
<path d="M707.932 571.527H712.014C712.357 571.527 712.635 571.242 712.635 570.89V568.887C712.635 568.536 712.357 568.251 712.014 568.251H707.932C707.589 568.251 707.311 568.536 707.311 568.887V570.89C707.311 571.242 707.589 571.527 707.932 571.527Z" fill="#3F3D56"/>
<path d="M697.286 571.527H701.368C701.71 571.527 701.988 571.242 701.988 570.89V568.887C701.988 568.536 701.71 568.251 701.368 568.251H697.286C696.943 568.251 696.665 568.536 696.665 568.887V570.89C696.665 571.242 696.943 571.527 697.286 571.527Z" fill="#3F3D56"/>
<path d="M686.639 571.527H690.721C691.064 571.527 691.342 571.242 691.342 570.89V568.887C691.342 568.536 691.064 568.251 690.721 568.251H686.639C686.296 568.251 686.019 568.536 686.019 568.887V570.89C686.019 571.242 686.296 571.527 686.639 571.527Z" fill="#3F3D56"/>
<path d="M675.992 571.527H680.075C680.417 571.527 680.695 571.242 680.695 570.89V568.887C680.695 568.536 680.417 568.251 680.075 568.251H675.992C675.65 568.251 675.372 568.536 675.372 568.887V570.89C675.372 571.242 675.65 571.527 675.992 571.527Z" fill="#3F3D56"/>
<path d="M665.346 571.527H669.428C669.771 571.527 670.048 571.242 670.048 570.89V568.887C670.048 568.536 669.771 568.251 669.428 568.251H665.346C665.003 568.251 664.725 568.536 664.725 568.887V570.89C664.725 571.242 665.003 571.527 665.346 571.527Z" fill="#3F3D56"/>
<path d="M654.699 571.527H658.781C659.124 571.527 659.402 571.242 659.402 570.89V568.887C659.402 568.536 659.124 568.251 658.781 568.251H654.699C654.356 568.251 654.079 568.536 654.079 568.887V570.89C654.079 571.242 654.356 571.527 654.699 571.527Z" fill="#3F3D56"/>
<path d="M644.052 571.527H648.134C648.477 571.527 648.755 571.242 648.755 570.89V568.887C648.755 568.536 648.477 568.251 648.134 568.251H644.052C643.709 568.251 643.432 568.536 643.432 568.887V570.89C643.432 571.242 643.709 571.527 644.052 571.527Z" fill="#3F3D56"/>
<path d="M633.406 571.527H637.488C637.831 571.527 638.108 571.242 638.108 570.89V568.887C638.108 568.536 637.831 568.251 637.488 568.251H633.406C633.063 568.251 632.785 568.536 632.785 568.887V570.89C632.785 571.242 633.063 571.527 633.406 571.527Z" fill="#3F3D56"/>
<path d="M704.738 578.079H746.084C746.426 578.079 746.704 577.794 746.704 577.442V575.439C746.704 575.087 746.426 574.802 746.084 574.802H704.738C704.395 574.802 704.118 575.087 704.118 575.439V577.442C704.118 577.794 704.395 578.079 704.738 578.079Z" fill="#3F3D56"/>
<path d="M660.934 467.653H657.32C656.224 467.653 655.335 468.564 655.335 469.688C655.335 470.812 656.224 471.723 657.32 471.723H660.934C662.029 471.723 662.918 470.812 662.918 469.688C662.918 468.564 662.029 467.653 660.934 467.653Z" fill="white"/>
<path d="M702.269 467.653H698.655C697.559 467.653 696.67 468.564 696.67 469.688C696.67 470.812 697.559 471.723 698.655 471.723H702.269C703.364 471.723 704.253 470.812 704.253 469.688C704.253 468.564 703.364 467.653 702.269 467.653Z" fill="white"/>
<path d="M713.98 467.653H710.366C709.27 467.653 708.382 468.564 708.382 469.688C708.382 470.812 709.27 471.723 710.366 471.723H713.98C715.076 471.723 715.964 470.812 715.964 469.688C715.964 468.564 715.076 467.653 713.98 467.653Z" fill="white"/>
<path d="M691.025 467.313H668.563C667.467 467.313 666.579 468.225 666.579 469.348C666.579 470.472 667.467 471.384 668.563 471.384H691.025C692.121 471.384 693.009 470.472 693.009 469.348C693.009 468.225 692.121 467.313 691.025 467.313Z" fill="white"/>
<path d="M746.138 467.313H723.676C722.58 467.313 721.692 468.225 721.692 469.348C721.692 470.472 722.58 471.384 723.676 471.384H746.138C747.234 471.384 748.122 470.472 748.122 469.348C748.122 468.225 747.234 467.313 746.138 467.313Z" fill="white"/>
<path d="M671.956 476.839H668.342C667.246 476.839 666.358 477.75 666.358 478.874C666.358 479.998 667.246 480.909 668.342 480.909H671.956C673.052 480.909 673.94 479.998 673.94 478.874C673.94 477.75 673.052 476.839 671.956 476.839Z" fill="white"/>
<path d="M713.291 476.839H709.677C708.581 476.839 707.693 477.75 707.693 478.874C707.693 479.998 708.581 480.909 709.677 480.909H713.291C714.387 480.909 715.275 479.998 715.275 478.874C715.275 477.75 714.387 476.839 713.291 476.839Z" fill="white"/>
<path d="M725.002 476.839H721.388C720.293 476.839 719.404 477.75 719.404 478.874C719.404 479.998 720.293 480.909 721.388 480.909H725.002C726.098 480.909 726.986 479.998 726.986 478.874C726.986 477.75 726.098 476.839 725.002 476.839Z" fill="white"/>
<path d="M702.048 476.5H679.585C678.489 476.5 677.601 477.411 677.601 478.535C677.601 479.658 678.489 480.57 679.585 480.57H702.048C703.143 480.57 704.032 479.658 704.032 478.535C704.032 477.411 703.143 476.5 702.048 476.5Z" fill="white"/>
<path d="M757.161 476.5H734.698C733.603 476.5 732.714 477.411 732.714 478.535C732.714 479.658 733.603 480.57 734.698 480.57H757.161C758.257 480.57 759.145 479.658 759.145 478.535C759.145 477.411 758.257 476.5 757.161 476.5Z" fill="white"/>
<path d="M682.979 486.025H679.365C678.269 486.025 677.381 486.936 677.381 488.06C677.381 489.184 678.269 490.095 679.365 490.095H682.979C684.075 490.095 684.963 489.184 684.963 488.06C684.963 486.936 684.075 486.025 682.979 486.025Z" fill="white"/>
<path d="M724.313 486.025H720.699C719.604 486.025 718.715 486.936 718.715 488.06C718.715 489.184 719.604 490.095 720.699 490.095H724.313C725.409 490.095 726.297 489.184 726.297 488.06C726.297 486.936 725.409 486.025 724.313 486.025Z" fill="white"/>
<path d="M736.025 486.025H732.411C731.315 486.025 730.427 486.936 730.427 488.06C730.427 489.184 731.315 490.095 732.411 490.095H736.025C737.121 490.095 738.009 489.184 738.009 488.06C738.009 486.936 737.121 486.025 736.025 486.025Z" fill="white"/>
<path d="M713.071 485.686H690.608C689.512 485.686 688.624 486.597 688.624 487.721C688.624 488.844 689.512 489.756 690.608 489.756H713.071C714.166 489.756 715.055 488.844 715.055 487.721C715.055 486.597 714.166 485.686 713.071 485.686Z" fill="white"/>
<path d="M768.184 485.686H745.721C744.625 485.686 743.737 486.597 743.737 487.721C743.737 488.844 744.625 489.756 745.721 489.756H768.184C769.279 489.756 770.168 488.844 770.168 487.721C770.168 486.597 769.279 485.686 768.184 485.686Z" fill="white"/>
<path d="M694.002 495.211H690.387C689.292 495.211 688.403 496.122 688.403 497.246C688.403 498.37 689.292 499.281 690.387 499.281H694.002C695.097 499.281 695.986 498.37 695.986 497.246C695.986 496.122 695.097 495.211 694.002 495.211Z" fill="white"/>
<path d="M735.337 495.211H731.722C730.627 495.211 729.738 496.122 729.738 497.246C729.738 498.37 730.627 499.281 731.722 499.281H735.337C736.432 499.281 737.32 498.37 737.32 497.246C737.32 496.122 736.432 495.211 735.337 495.211Z" fill="white"/>
<path d="M747.048 495.211H743.434C742.338 495.211 741.45 496.122 741.45 497.246C741.45 498.37 742.338 499.281 743.434 499.281H747.048C748.144 499.281 749.032 498.37 749.032 497.246C749.032 496.122 748.144 495.211 747.048 495.211Z" fill="white"/>
<path d="M724.093 494.872H701.63C700.535 494.872 699.646 495.783 699.646 496.907C699.646 498.031 700.535 498.942 701.63 498.942H724.093C725.189 498.942 726.077 498.031 726.077 496.907C726.077 495.783 725.189 494.872 724.093 494.872Z" fill="white"/>
<path d="M702.269 531.738H698.655C697.559 531.738 696.67 532.65 696.67 533.774C696.67 534.898 697.559 535.809 698.655 535.809H702.269C703.364 535.809 704.253 534.898 704.253 533.774C704.253 532.65 703.364 531.738 702.269 531.738Z" fill="white"/>
<path d="M713.98 531.738H710.366C709.27 531.738 708.382 532.65 708.382 533.774C708.382 534.898 709.27 535.809 710.366 535.809H713.98C715.076 535.809 715.964 534.898 715.964 533.774C715.964 532.65 715.076 531.738 713.98 531.738Z" fill="white"/>
<path d="M746.138 532.078H723.676C722.58 532.078 721.692 532.989 721.692 534.113C721.692 535.237 722.58 536.148 723.676 536.148H746.138C747.234 536.148 748.122 535.237 748.122 534.113C748.122 532.989 747.234 532.078 746.138 532.078Z" fill="white"/>
<path d="M660.934 531.738H657.32C656.224 531.738 655.335 532.65 655.335 533.774C655.335 534.898 656.224 535.809 657.32 535.809H660.934C662.029 535.809 662.918 534.898 662.918 533.774C662.918 532.65 662.029 531.738 660.934 531.738Z" fill="white"/>
<path d="M691.025 532.078H668.563C667.467 532.078 666.579 532.989 666.579 534.113C666.579 535.237 667.467 536.148 668.563 536.148H691.025C692.121 536.148 693.009 535.237 693.009 534.113C693.009 532.989 692.121 532.078 691.025 532.078Z" fill="white"/>
<path d="M671.956 522.553H668.342C667.246 522.553 666.358 523.464 666.358 524.588C666.358 525.712 667.246 526.623 668.342 526.623H671.956C673.052 526.623 673.94 525.712 673.94 524.588C673.94 523.464 673.052 522.553 671.956 522.553Z" fill="white"/>
<path d="M713.291 522.553H709.677C708.581 522.553 707.693 523.464 707.693 524.588C707.693 525.712 708.581 526.623 709.677 526.623H713.291C714.387 526.623 715.275 525.712 715.275 524.588C715.275 523.464 714.387 522.553 713.291 522.553Z" fill="white"/>
<path d="M725.002 522.553H721.388C720.293 522.553 719.404 523.464 719.404 524.588C719.404 525.712 720.293 526.623 721.388 526.623H725.002C726.098 526.623 726.986 525.712 726.986 524.588C726.986 523.464 726.098 522.553 725.002 522.553Z" fill="white"/>
<path d="M702.048 522.892H679.585C678.489 522.892 677.601 523.803 677.601 524.927C677.601 526.05 678.489 526.962 679.585 526.962H702.048C703.143 526.962 704.032 526.05 704.032 524.927C704.032 523.803 703.143 522.892 702.048 522.892Z" fill="white"/>
<path d="M682.979 513.366H679.365C678.269 513.366 677.381 514.277 677.381 515.401C677.381 516.525 678.269 517.436 679.365 517.436H682.979C684.075 517.436 684.963 516.525 684.963 515.401C684.963 514.277 684.075 513.366 682.979 513.366Z" fill="white"/>
<path d="M724.313 513.366H720.699C719.604 513.366 718.715 514.277 718.715 515.401C718.715 516.525 719.604 517.436 720.699 517.436H724.313C725.409 517.436 726.297 516.525 726.297 515.401C726.297 514.277 725.409 513.366 724.313 513.366Z" fill="white"/>
<path d="M736.025 513.366H732.411C731.315 513.366 730.427 514.277 730.427 515.401C730.427 516.525 731.315 517.436 732.411 517.436H736.025C737.121 517.436 738.009 516.525 738.009 515.401C738.009 514.277 737.121 513.366 736.025 513.366Z" fill="white"/>
<path d="M713.071 513.706H690.608C689.512 513.706 688.624 514.617 688.624 515.741C688.624 516.865 689.512 517.776 690.608 517.776H713.071C714.166 517.776 715.055 516.865 715.055 515.741C715.055 514.617 714.166 513.706 713.071 513.706Z" fill="white"/>
<path d="M694.002 504.18H690.387C689.292 504.18 688.403 505.091 688.403 506.215C688.403 507.339 689.292 508.25 690.387 508.25H694.002C695.097 508.25 695.986 507.339 695.986 506.215C695.986 505.091 695.097 504.18 694.002 504.18Z" fill="white"/>
<path d="M735.337 504.18H731.722C730.627 504.18 729.738 505.091 729.738 506.215C729.738 507.339 730.627 508.25 731.722 508.25H735.337C736.432 508.25 737.32 507.339 737.32 506.215C737.32 505.091 736.432 504.18 735.337 504.18Z" fill="white"/>
<path d="M747.048 504.18H743.434C742.338 504.18 741.45 505.091 741.45 506.215C741.45 507.339 742.338 508.25 743.434 508.25H747.048C748.144 508.25 749.032 507.339 749.032 506.215C749.032 505.091 748.144 504.18 747.048 504.18Z" fill="white"/>
<path d="M724.093 504.52H701.63C700.535 504.52 699.646 505.431 699.646 506.555C699.646 507.679 700.535 508.59 701.63 508.59H724.093C725.189 508.59 726.077 507.679 726.077 506.555C726.077 505.431 725.189 504.52 724.093 504.52Z" fill="white"/>
<path d="M641.719 639.396L624.752 611.888L678.007 568.344L699.989 543.365C702.844 540.12 706.481 537.7 710.534 536.348C714.587 534.996 718.915 534.758 723.086 535.659C727.256 536.56 731.123 538.568 734.3 541.482C737.477 544.397 739.853 548.115 741.19 552.266C743.171 558.417 742.745 565.117 740.002 570.953C737.258 576.788 732.412 581.301 726.485 583.541L691.726 596.675L641.719 639.396Z" fill="#FFB6B6"/>
<path d="M243.626 439.943V573.641H334.943V439.943C334.944 438.981 334.645 438.044 334.089 437.27C333.534 436.496 332.75 435.925 331.855 435.641C331.432 435.498 330.99 435.427 330.545 435.432H248.036C247.458 435.431 246.885 435.547 246.35 435.773C245.815 435.999 245.329 436.331 244.92 436.75C244.51 437.169 244.185 437.667 243.963 438.214C243.741 438.762 243.627 439.35 243.626 439.943ZM279.263 485.882C279.287 483.246 280.324 480.727 282.15 478.872C283.976 477.016 286.441 475.976 289.011 475.976C291.581 475.976 294.047 477.016 295.872 478.872C297.698 480.727 298.735 483.246 298.759 485.882V501.395C298.746 504.038 297.713 506.568 295.887 508.432C294.06 510.296 291.588 511.343 289.011 511.343C286.434 511.343 283.962 510.296 282.136 508.432C280.309 506.568 279.276 504.038 279.263 501.395V485.882Z" fill="#2F2E41"/>
<path d="M243.347 569.365V582.258C243.349 582.926 243.607 583.566 244.067 584.039C244.526 584.513 245.149 584.781 245.8 584.787H332.77C333.422 584.784 334.046 584.516 334.505 584.042C334.965 583.568 335.223 582.926 335.223 582.258V569.365H243.347Z" fill="#3F3D56"/>
<path d="M99.9719 238.509V482.623C99.9743 485.734 101.18 488.717 103.325 490.916C105.469 493.116 108.377 494.353 111.41 494.356H464.096C467.129 494.353 470.037 493.116 472.181 490.916C474.326 488.717 475.532 485.734 475.534 482.623V238.509C475.527 235.401 474.319 232.423 472.175 230.226C470.031 228.03 467.126 226.794 464.096 226.79H111.41C108.38 226.794 105.475 228.03 103.331 230.226C101.187 232.423 99.9792 235.401 99.9719 238.509Z" fill="#3F3D56"/>
<path d="M108.246 241.547V479.612C108.249 481.274 108.894 482.867 110.039 484.042C111.185 485.217 112.739 485.879 114.359 485.882H461.16C462.781 485.879 464.334 485.217 465.48 484.042C466.626 482.867 467.271 481.274 467.273 479.612V241.547C467.273 239.882 466.629 238.286 465.483 237.108C464.337 235.93 462.783 235.267 461.16 235.263H114.359C112.737 235.267 111.182 235.93 110.036 237.108C108.89 238.286 108.246 239.882 108.246 241.547Z" fill="white"/>
<path d="M172.606 583.913C172.959 584.367 173.408 584.733 173.918 584.984C174.429 585.235 174.989 585.363 175.555 585.36H381.879C382.443 585.36 383 585.23 383.509 584.981C384.019 584.731 384.467 584.369 384.823 583.919C385.178 583.47 385.431 582.945 385.564 582.382C385.697 581.82 385.706 581.234 385.59 580.667L382.387 565.063C382.254 564.427 381.969 563.835 381.556 563.341C381.143 562.847 380.616 562.466 380.023 562.234C379.594 562.062 379.137 561.973 378.676 561.974H178.745C178.284 561.973 177.827 562.062 177.398 562.234C176.805 562.466 176.278 562.846 175.865 563.34C175.452 563.835 175.166 564.427 175.034 565.063L171.831 580.667C171.717 581.233 171.727 581.819 171.861 582.38C171.996 582.941 172.25 583.465 172.606 583.913Z" fill="#2F2E41"/>
<path d="M449.905 268.058H125.405C125.068 268.05 124.747 267.907 124.511 267.66C124.275 267.413 124.143 267.08 124.143 266.734C124.143 266.388 124.275 266.056 124.511 265.809C124.747 265.561 125.068 265.418 125.405 265.411H449.905C450.243 265.418 450.564 265.561 450.799 265.809C451.035 266.056 451.167 266.388 451.167 266.734C451.167 267.08 451.035 267.413 450.799 267.66C450.564 267.907 450.243 268.05 449.905 268.058Z" fill="#3F3D56"/>
<path d="M147.494 258.652C151.671 258.652 155.057 255.102 155.057 250.722C155.057 246.343 151.671 242.792 147.494 242.792C143.318 242.792 139.932 246.343 139.932 250.722C139.932 255.102 143.318 258.652 147.494 258.652Z" fill="#3F3D56"/>
<path d="M173.62 258.652C177.796 258.652 181.182 255.102 181.182 250.722C181.182 246.343 177.796 242.792 173.62 242.792C169.443 242.792 166.057 246.343 166.057 250.722C166.057 255.102 169.443 258.652 173.62 258.652Z" fill="#3F3D56"/>
<path d="M199.745 258.652C203.922 258.652 207.308 255.102 207.308 250.722C207.308 246.343 203.922 242.792 199.745 242.792C195.569 242.792 192.183 246.343 192.183 250.722C192.183 255.102 195.569 258.652 199.745 258.652Z" fill="#3F3D56"/>
<path d="M434.173 244.753H415.618C415.251 244.762 414.902 244.918 414.646 245.187C414.389 245.456 414.246 245.818 414.246 246.194C414.246 246.57 414.389 246.932 414.646 247.201C414.902 247.47 415.251 247.626 415.618 247.634H434.173C434.542 247.629 434.895 247.475 435.154 247.205C435.413 246.936 435.558 246.572 435.558 246.194C435.558 245.815 435.413 245.452 435.154 245.182C434.895 244.913 434.542 244.759 434.173 244.753Z" fill="#3F3D56"/>
<path d="M434.174 250.164H415.618C415.251 250.172 414.901 250.327 414.645 250.597C414.388 250.866 414.244 251.227 414.244 251.604C414.244 251.981 414.388 252.342 414.645 252.612C414.901 252.881 415.251 253.036 415.618 253.045H434.174C434.543 253.04 434.896 252.886 435.156 252.617C435.416 252.347 435.561 251.983 435.561 251.604C435.561 251.225 435.416 250.861 435.156 250.592C434.896 250.322 434.543 250.168 434.174 250.164Z" fill="#3F3D56"/>
<path d="M434.173 255.573H415.618C415.251 255.582 414.902 255.738 414.646 256.007C414.389 256.276 414.246 256.637 414.246 257.014C414.246 257.39 414.389 257.751 414.646 258.021C414.902 258.29 415.251 258.445 415.618 258.454H434.173C434.542 258.449 434.895 258.295 435.154 258.025C435.413 257.756 435.558 257.392 435.558 257.014C435.558 256.635 435.413 256.272 435.154 256.002C434.895 255.733 434.542 255.579 434.173 255.573Z" fill="#3F3D56"/>
<path d="M881.518 575.023C882.078 576.696 883.14 578.143 884.552 579.157C885.963 580.172 887.652 580.701 889.376 580.669L923.045 579.78C924.782 579.746 926.46 579.136 927.83 578.041C929.2 576.947 930.188 575.428 930.647 573.71L935.411 521.452C937.102 522.237 938.942 522.625 940.798 522.587C942.409 522.545 943.998 522.178 945.472 521.507C946.945 520.836 948.276 519.874 949.387 518.676C950.498 517.477 951.368 516.066 951.948 514.522C952.527 512.979 952.805 511.333 952.764 509.68C952.724 508.027 952.366 506.398 951.712 504.886C951.058 503.374 950.12 502.009 948.951 500.87C947.783 499.73 946.407 498.837 944.902 498.243C943.397 497.649 941.793 497.364 940.181 497.405C939.44 497.403 938.7 497.482 937.975 497.641C937.186 496.766 936.227 496.069 935.16 495.597C934.093 495.125 932.942 494.887 931.78 494.899L879.989 496.271C879.559 496.287 879.132 496.342 878.711 496.434C877.575 496.651 876.498 497.115 875.552 497.795C874.606 498.475 873.812 499.355 873.226 500.376C872.639 501.397 872.272 502.535 872.15 503.713C872.028 504.892 872.153 506.083 872.518 507.208L881.518 575.023ZM936.388 517.903L939.779 505.45C940.164 504.012 940.173 502.494 939.805 501.051C939.969 501.051 940.114 500.971 940.279 500.97C942.604 500.921 944.852 501.819 946.532 503.468C948.212 505.117 949.186 507.382 949.241 509.766C949.295 512.15 948.426 514.46 946.823 516.187C945.22 517.915 943.014 518.92 940.69 518.982C939.187 519.031 937.7 518.658 936.388 517.903Z" fill="#2F2E41"/>
<path d="M878.711 496.434C879.815 502.905 892.22 507.454 907.137 506.664C920.854 506.015 932.069 501.075 934.124 495.22C933.364 494.989 932.573 494.881 931.78 494.899L879.989 496.271C879.559 496.287 879.132 496.342 878.711 496.434Z" fill="#3F3D56"/>
<path d="M909.87 546.307C909.939 546.289 910.003 546.26 910.062 546.221L917.374 541.312C917.462 541.252 917.535 541.172 917.585 541.076C917.636 540.981 917.662 540.875 917.662 540.767C917.662 540.658 917.636 540.552 917.586 540.457C917.535 540.361 917.463 540.281 917.374 540.221L909.775 535.116C909.705 535.068 909.627 535.035 909.545 535.019C909.462 535.003 909.378 535.003 909.296 535.021C909.214 535.038 909.136 535.072 909.067 535.12C908.998 535.168 908.939 535.23 908.893 535.302C908.847 535.373 908.816 535.454 908.8 535.538C908.785 535.622 908.785 535.709 908.803 535.793C908.82 535.877 908.853 535.956 908.9 536.027C908.948 536.098 909.008 536.158 909.078 536.205L915.866 540.766L909.367 545.13C909.241 545.214 909.148 545.342 909.105 545.49C909.063 545.638 909.072 545.796 909.133 545.937C909.193 546.079 909.3 546.193 909.435 546.261C909.571 546.329 909.725 546.345 909.87 546.307H909.87Z" fill="#00B0FF"/>
<path d="M898.322 546.854C898.445 546.822 898.555 546.753 898.64 546.656C898.724 546.56 898.778 546.439 898.795 546.311C898.813 546.182 898.792 546.051 898.736 545.934C898.68 545.818 898.592 545.721 898.482 545.657L891.742 541.693L898.257 536.73C898.324 536.679 898.38 536.615 898.423 536.541C898.466 536.468 898.494 536.387 898.506 536.302C898.518 536.217 898.514 536.131 898.494 536.048C898.473 535.965 898.437 535.887 898.388 535.819C898.338 535.75 898.275 535.692 898.204 535.648C898.132 535.604 898.053 535.575 897.97 535.563C897.888 535.55 897.804 535.554 897.723 535.575C897.642 535.596 897.566 535.633 897.499 535.684L890.206 541.241C890.121 541.306 890.053 541.391 890.008 541.489C889.964 541.587 889.944 541.695 889.95 541.803C889.956 541.911 889.988 542.015 890.044 542.107C890.1 542.199 890.177 542.276 890.268 542.329L897.85 546.787C897.993 546.872 898.162 546.895 898.322 546.854Z" fill="#00B0FF"/>
<path d="M909.144 550.609C909.205 550.593 909.264 550.568 909.318 550.534C909.389 550.489 909.451 550.431 909.501 550.362C909.55 550.292 909.585 550.214 909.605 550.131C909.625 550.048 909.629 549.961 909.616 549.877C909.603 549.792 909.574 549.711 909.531 549.638L899.165 532.159C899.078 532.011 898.936 531.906 898.773 531.865C898.609 531.824 898.436 531.852 898.292 531.942C898.148 532.032 898.045 532.177 898.005 532.344C897.965 532.512 897.992 532.689 898.08 532.837L908.445 550.316C908.515 550.435 908.621 550.528 908.747 550.58C908.873 550.633 909.012 550.643 909.144 550.609Z" fill="#00B0FF"/>
<path d="M326.427 340.017H270.263C267.972 340.017 266.115 341.922 266.115 344.272V349.9C266.115 352.25 267.972 354.155 270.263 354.155H326.427C328.718 354.155 330.576 352.25 330.576 349.9V344.272C330.576 341.922 328.718 340.017 326.427 340.017Z" fill="#00B0FF"/>
<path d="M359.165 368.293H237.526C235.235 368.293 233.377 370.199 233.377 372.549V378.177C233.377 380.527 235.235 382.432 237.526 382.432H359.165C361.456 382.432 363.313 380.527 363.313 378.177V372.549C363.313 370.199 361.456 368.293 359.165 368.293Z" fill="#E6E6E6"/>
<path d="M359.165 396.571H237.526C235.235 396.571 233.377 398.476 233.377 400.826V406.454C233.377 408.804 235.235 410.709 237.526 410.709H359.165C361.456 410.709 363.313 408.804 363.313 406.454V400.826C363.313 398.476 361.456 396.571 359.165 396.571Z" fill="#E6E6E6"/>
<path d="M369.476 491.259L369.752 492.152L369.766 492.181L378.059 518.042L387.599 547.844L405.548 603.849L405.722 612.548V612.578L407.056 682.562L403.359 692.05L407.52 707.605C407.52 707.605 405.606 684.091 395.341 697.594C389.527 705.268 382.728 713.12 377.146 720.481C385.279 723.857 393.544 726.911 401.938 729.642C403.75 730.237 405.577 730.802 407.404 731.367C407.795 731.486 408.187 731.605 408.578 731.724C436.405 740.165 465.173 744.908 494.177 745.836C495.685 745.881 497.164 745.911 498.599 745.941C499.107 745.955 499.6 745.97 500.093 745.97C501.716 745.985 503.326 746 504.95 746C508.226 746 511.488 745.951 514.736 745.851C538.774 745.157 562.671 741.841 586.025 735.962C585.865 726.073 585.43 714.518 584.807 702.175C584.517 696.122 578.007 689.564 577.616 683.229C577.34 678.47 583.183 673.994 582.879 669.161C580.907 639.404 578.442 650.827 576.615 629.754C576.427 627.687 576.253 625.709 576.093 623.821C574.919 610.288 574.107 601.826 574.107 601.826L581.907 551.398L594.158 472.224L593.216 470.633L592.158 470.098L527.538 437.292L524.029 428.072C523.007 425.416 521.234 423.134 518.937 421.52C516.64 419.906 513.925 419.034 511.14 419.015L468.573 418.837C466.364 418.827 464.184 419.357 462.215 420.384C460.246 421.411 458.543 422.904 457.25 424.741L445.723 441.114L369.476 491.259Z" fill="#3F3D56"/>
<path d="M415.364 591.387L405.722 612.548L399.14 627.003L387.817 687.811L382.148 693.983L377.291 672.135L326.456 683.712C324.789 674.21 326.01 684.034 324.98 673.609C325.27 673.312 325.575 673.014 325.879 672.717C326.691 671.944 327.373 671.215 327.358 670.516C326.778 634.558 328.518 573.363 343.046 536.289C345.321 530.236 348.321 524.496 351.977 519.202C352.267 518.801 352.542 518.399 352.818 517.998C359.516 508.376 363.749 498.903 369.752 492.166V492.152C369.789 492.121 369.823 492.086 369.853 492.047C369.875 492.036 369.895 492.021 369.911 492.003L411.145 469.577L412.914 520.555L414.175 557.198L415.364 591.387Z" fill="#3F3D56"/>
<path d="M564.044 597.397L576.088 623.828L580.291 633.033L591.611 693.835L597.262 699.992L602.13 678.149L604.417 677.668L645.67 668.905L657.694 708.073C660.404 703.442 661.472 697.993 660.716 692.647C659.961 687.301 657.429 682.387 653.549 678.735C652.728 677.973 652.044 677.231 652.063 676.529C652.747 634.236 650.225 557.009 627.448 525.225C620.215 515.137 615.874 505.091 609.559 498.072C609.54 498.052 609.54 498.032 609.52 498.032L594.153 472.223L593.215 470.639L592.159 470.097L564.044 597.397Z" fill="#3F3D56"/>
<path d="M491.086 406.411C522.363 406.411 547.717 380.405 547.717 348.325C547.717 316.244 522.363 290.238 491.086 290.238C459.81 290.238 434.456 316.244 434.456 348.325C434.456 380.405 459.81 406.411 491.086 406.411Z" fill="#FFB6B6"/>
<path d="M567.629 307.752C567.19 307.271 566.661 306.885 566.074 306.619C565.487 306.352 564.853 306.21 564.211 306.2L565.062 303.776C565.34 303.012 565.415 302.186 565.279 301.383C565.144 300.58 564.802 299.828 564.29 299.204C563.778 298.581 563.114 298.108 562.365 297.835C561.616 297.562 560.81 297.497 560.029 297.649L556.928 298.261L557.22 296.137C557.333 295.345 557.242 294.538 556.957 293.793C556.673 293.048 556.204 292.393 555.598 291.89C554.991 291.388 554.267 291.056 553.498 290.927C552.728 290.799 551.94 290.878 551.209 291.157C550.544 291.425 549.829 291.538 549.117 291.486C548.404 291.434 547.712 291.219 547.091 290.857C546.467 290.506 545.926 290.02 545.505 289.432C545.083 288.844 544.792 288.17 544.651 287.454L543.571 282.11L543.456 281.823C538.194 272.828 528.078 266.284 515.699 263.885C504.68 261.734 493.381 262.829 482.489 263.859C478.168 264.276 473.288 264.746 469.221 267.301C465.764 269.491 462.84 273.871 463.438 278.29C452.698 274.914 441.184 281.653 435.477 290.153C428.716 300.269 427.61 312.94 427.432 322.847C426.949 346.286 431.664 365.462 441.412 379.854C442.124 380.897 442.302 383.074 443.713 383.804L443.421 383.322C444.997 384.13 446.598 385.434 446.001 386.829C444.285 390.844 455.685 399.721 463.717 402.654C478.371 408.012 497.855 407.556 511.556 405.627L512.039 402.302C516.982 401.611 520.465 400.295 521.443 398.235C523.172 396.723 524.646 395.367 525.93 394.116L525.943 394.103C525.968 394.077 526.019 394.038 526.044 394.011C532.234 387.924 533.67 384.456 534.318 379.176C534.941 374.001 533.835 368.748 532.704 364.015C556.521 367.796 523.324 337.995 545.515 332.233C545.77 332.153 546.028 332.088 546.29 332.038C546.938 331.882 547.587 331.725 548.209 331.543C551.211 330.707 554.086 329.448 556.75 327.801C562.952 323.93 564.999 318.793 568.201 313.005C568.663 312.181 568.857 311.227 568.754 310.282C568.651 309.338 568.257 308.451 567.629 307.752Z" fill="#2F2E41"/>
<path d="M691.381 601.533C691.368 603.814 691.343 607.008 691.241 610.958C691.228 611.505 691.215 612.066 691.203 612.639C691.038 619.901 690.872 625.988 690.605 632.754C690.593 633.223 690.58 633.68 690.555 634.149C690.199 643.587 689.64 654.577 688.674 671.98C686.882 704.127 683.755 676.399 680.616 687.675C680.463 688.236 680.298 688.901 680.146 689.683C679.67 692.521 678.868 695.291 677.756 697.935C676.091 698.951 674.376 699.929 672.685 700.907C667.868 703.657 662.975 706.304 658.044 708.82C655.273 710.228 652.49 711.609 649.694 712.939C649.249 713.148 648.817 713.356 648.385 713.552C634.067 720.345 619.31 726.12 604.22 730.838C601.271 731.75 598.335 732.637 595.361 733.458C592.26 734.344 589.159 735.179 586.02 735.961C562.667 741.841 538.77 745.158 514.733 745.855C511.492 745.96 508.226 745.999 504.947 745.999C503.32 745.999 501.719 745.986 500.092 745.973C499.596 745.973 499.1 745.96 498.605 745.947C497.169 745.907 495.682 745.881 494.182 745.842C465.178 744.914 436.41 740.17 408.584 731.724L407.402 731.372C405.572 730.799 403.755 730.238 401.937 729.638C393.549 726.914 385.284 723.863 377.141 720.487C370.926 717.919 364.783 715.164 358.713 712.222C358.657 712.207 358.605 712.18 358.56 712.144C357.289 711.544 356.005 710.919 354.734 710.28C354.569 710.189 354.391 710.097 354.213 710.006C349.473 707.633 344.783 705.148 340.144 702.549C336.242 693.359 330.752 691.599 327.346 683.517C326.354 681.115 325.638 678.604 325.211 676.034C325.211 676.008 325.198 675.982 325.198 675.943C325.554 680.792 323.685 667.339 325.185 675.891C325.172 675.734 325.16 675.565 325.147 675.369C325.109 674.9 325.058 674.326 324.982 673.609C320.623 629.951 320.902 580.023 319.008 538.881C318.881 536.222 318.75 533.676 318.614 531.242C318.576 530.434 318.526 529.639 318.475 528.857C318.564 528.622 318.665 528.374 318.78 528.14C318.804 528.072 318.834 528.007 318.869 527.944C318.906 527.863 318.949 527.785 318.996 527.709C319.021 527.67 319.059 527.618 319.085 527.579C319.103 527.534 319.124 527.491 319.148 527.449C319.263 527.266 319.39 527.071 319.529 526.888C319.593 526.81 319.644 526.745 319.707 526.68C319.751 526.613 319.802 526.552 319.86 526.497C319.899 526.434 319.946 526.377 320 526.328C320.051 526.275 320.101 526.21 320.165 526.145C320.192 526.104 320.227 526.069 320.267 526.041C320.367 525.922 320.478 525.813 320.597 525.715C321.051 525.287 321.535 524.895 322.046 524.542C322.224 524.424 322.415 524.307 322.592 524.177C323.873 523.391 325.222 522.727 326.621 522.195C327.104 522.013 327.587 521.843 328.108 521.661C328.299 521.609 328.477 521.543 328.668 521.478C328.947 521.387 329.227 521.296 329.519 521.231C330.968 520.787 332.531 520.409 334.222 520.057C334.425 520.018 334.641 519.979 334.857 519.927C335.162 519.862 335.48 519.81 335.798 519.757C336.23 519.679 336.674 519.601 337.119 519.523C340.894 518.91 345.177 518.454 349.905 518.154C350.35 518.128 350.795 518.102 351.239 518.076C351.76 518.05 352.282 518.024 352.815 517.998C353.26 517.972 353.718 517.958 354.175 517.945C354.62 517.919 355.078 517.906 355.548 517.893C356.832 517.854 358.153 517.815 359.501 517.789C363.339 517.711 367.38 517.737 371.625 517.828C373.595 517.88 375.603 517.932 377.662 518.024C377.802 518.024 377.929 518.037 378.056 518.037C379.848 518.102 381.653 518.18 383.509 518.284C384.805 518.35 386.114 518.415 387.423 518.493C388.656 518.571 389.901 518.649 391.16 518.741C392.138 518.793 393.117 518.871 394.108 518.936C394.947 519.001 395.786 519.067 396.625 519.119L397.768 519.197C398.391 519.249 399.014 519.288 399.649 519.353C401.047 519.471 402.446 519.588 403.869 519.705C405.28 519.836 406.716 519.966 408.152 520.096C409.588 520.227 411.037 520.37 412.486 520.514C412.638 520.527 412.778 520.54 412.918 520.553C414.24 520.696 415.562 520.826 416.896 520.97C417.201 520.996 417.519 521.022 417.824 521.061C419.096 521.192 420.393 521.346 421.677 521.486C422.071 521.529 422.463 521.571 422.859 521.616C423.864 521.728 424.856 521.826 425.869 521.947C427.203 522.104 428.563 522.247 429.885 522.43C430.914 522.547 431.944 522.665 432.973 522.795C434.587 522.99 436.227 523.199 437.866 523.421C438.489 523.499 439.112 523.577 439.735 523.668C444.412 524.268 449.14 524.933 453.944 525.624C461.226 526.68 468.623 527.827 476.071 529.065C483.531 530.304 491.034 531.612 498.579 532.989C500.486 533.341 502.392 533.693 504.311 534.058C505.175 534.227 506.04 534.397 506.904 534.566C508.378 534.84 509.852 535.127 511.327 535.414C512.801 535.701 514.275 535.987 515.75 536.287C517.503 536.639 519.27 536.991 521.024 537.343C532.577 539.69 544.066 542.193 555.276 544.813C557.119 545.243 558.962 545.686 560.792 546.116C564.452 546.99 568.078 547.876 571.671 548.776C572.662 549.01 573.641 549.258 574.619 549.506C577.06 550.131 579.5 550.757 581.902 551.396L582.321 551.513C584.088 551.956 585.816 552.413 587.545 552.882C591.625 553.977 595.637 555.085 599.581 556.206C602.199 556.949 604.787 557.701 607.346 558.462C611.172 559.596 614.921 560.743 618.568 561.903C619.471 562.19 620.373 562.477 621.263 562.75C623.932 563.598 626.563 564.458 629.117 565.318C631.151 565.996 633.133 566.687 635.091 567.378C637.048 568.069 638.967 568.76 640.848 569.451C642.055 569.894 643.25 570.363 644.445 570.807C646.161 571.459 647.851 572.11 649.503 572.762C650.012 572.958 650.507 573.166 651.003 573.362C651.321 573.505 651.626 573.622 651.931 573.753C652.528 574 653.138 574.235 653.723 574.483C654.32 574.717 654.905 574.965 655.489 575.226C656.061 575.461 656.646 575.708 657.205 575.956C657.777 576.191 658.336 576.438 658.895 576.699C659.366 576.895 659.823 577.103 660.268 577.312C661.17 577.716 662.073 578.12 662.95 578.537C663.382 578.746 663.814 578.941 664.246 579.15L665.237 579.619C665.377 579.697 665.517 579.762 665.657 579.828C665.974 579.984 666.305 580.154 666.623 580.31C667.36 580.662 668.084 581.04 668.796 581.392C669.749 581.887 670.677 582.383 671.567 582.865C672.469 583.36 673.346 583.856 674.185 584.338C674.325 584.416 674.452 584.495 674.591 584.573C674.782 584.677 674.973 584.794 675.163 584.899C675.812 585.277 676.434 585.668 677.057 586.046C678.277 586.815 679.434 587.571 680.514 588.327C680.756 588.497 680.984 588.666 681.226 588.822C682.026 589.409 682.789 589.983 683.501 590.569C683.501 590.582 683.501 590.582 683.514 590.582C683.755 590.765 683.984 590.96 684.213 591.143C684.403 591.325 684.606 591.482 684.797 591.664C685.458 592.251 686.068 592.811 686.627 593.385C686.815 593.562 686.993 593.749 687.161 593.946C687.235 594.009 687.303 594.078 687.364 594.154C687.619 594.415 687.847 594.676 688.063 594.936C688.097 594.972 688.127 595.012 688.152 595.054C688.457 595.419 688.737 595.784 689.004 596.149C689.131 596.331 689.271 596.514 689.385 596.696C689.538 596.918 689.69 597.153 689.817 597.374C689.932 597.557 690.033 597.752 690.135 597.935C690.405 598.405 690.634 598.897 690.821 599.408C690.964 599.754 691.079 600.111 691.165 600.477C691.261 600.823 691.333 601.176 691.381 601.533Z" fill="#2F2E41"/>
<path opacity="0.2" d="M691.381 601.533C691.368 603.814 691.343 607.008 691.241 610.958C691.228 611.506 691.203 612.066 691.19 612.64C691.063 618.18 690.872 625.024 690.606 632.755C690.593 633.224 690.58 633.68 690.555 634.149C690.199 643.588 689.64 654.577 688.674 671.98C686.882 704.127 683.755 676.399 680.616 687.676C671.897 682.174 662.34 676.412 652.121 670.494C650.279 669.425 648.419 668.352 646.542 667.274C626.105 655.581 603.279 643.327 579.449 631.19C578.509 630.708 577.556 630.226 576.615 629.756C522.028 602.081 462.447 575.161 414.176 557.197C404.86 553.73 395.964 550.601 387.601 547.85C369.986 542.075 354.76 538.034 343.042 536.287C330.841 534.462 322.415 535.114 319.008 538.882C318.881 536.222 318.75 533.676 318.614 531.242C318.564 530.434 318.513 529.639 318.462 528.857C318.54 528.642 318.642 528.437 318.741 528.231C318.755 528.201 318.765 528.17 318.78 528.14C318.804 528.072 318.834 528.007 318.869 527.944C318.906 527.863 318.949 527.785 318.996 527.71C319.037 527.617 319.088 527.53 319.148 527.449C319.263 527.266 319.39 527.071 319.529 526.888C319.632 526.752 319.743 526.621 319.86 526.497C319.899 526.435 319.946 526.378 320 526.328C320.051 526.276 320.101 526.21 320.165 526.145C320.192 526.104 320.227 526.069 320.267 526.041C320.367 525.923 320.478 525.813 320.597 525.715C321.051 525.287 321.535 524.895 322.046 524.542C322.224 524.425 322.415 524.307 322.592 524.177C323.873 523.391 325.222 522.728 326.621 522.195C327.104 522.013 327.587 521.843 328.108 521.661C328.299 521.609 328.477 521.544 328.668 521.478C328.947 521.387 329.227 521.296 329.519 521.231C330.968 520.787 332.531 520.409 334.222 520.057C334.73 519.953 335.264 519.849 335.798 519.758C336.23 519.679 336.674 519.601 337.119 519.523C340.894 518.91 345.177 518.454 349.905 518.154C350.35 518.128 350.795 518.102 351.239 518.076C351.761 518.05 352.282 518.024 352.815 517.998C353.26 517.972 353.718 517.959 354.175 517.946C354.62 517.92 355.078 517.906 355.548 517.893C356.832 517.854 358.153 517.815 359.501 517.789C363.339 517.724 367.38 517.75 371.625 517.841C373.595 517.88 375.603 517.946 377.662 518.037C377.789 518.037 377.929 518.05 378.056 518.05C379.848 518.102 381.666 518.193 383.509 518.285C384.805 518.35 386.114 518.415 387.423 518.493C388.656 518.571 389.901 518.65 391.16 518.741C392.138 518.793 393.117 518.871 394.108 518.936C394.947 519.002 395.786 519.067 396.625 519.119C397.629 519.197 398.633 519.275 399.649 519.353C401.047 519.471 402.446 519.588 403.869 519.705C405.28 519.836 406.716 519.966 408.152 520.096C409.588 520.227 411.037 520.37 412.486 520.514C412.638 520.527 412.778 520.54 412.918 520.553C414.24 520.696 415.562 520.827 416.896 520.97C424.293 521.739 431.906 522.639 439.735 523.668C444.412 524.281 449.148 524.937 453.944 525.637C461.226 526.693 468.623 527.84 476.071 529.065C483.532 530.304 491.034 531.612 498.579 532.989C500.486 533.341 502.392 533.693 504.311 534.058C506.65 534.501 508.988 534.953 511.327 535.414C512.801 535.701 514.275 535.988 515.75 536.287C517.504 536.639 519.27 536.991 521.024 537.343C532.577 539.69 544.066 542.193 555.276 544.813C557.119 545.243 558.962 545.686 560.792 546.117C564.452 546.99 568.078 547.876 571.671 548.776C572.662 549.024 573.641 549.271 574.62 549.519C577.073 550.145 579.5 550.77 581.902 551.396V551.409C582.042 551.435 582.182 551.474 582.321 551.514C584.075 551.97 585.817 552.426 587.545 552.895C591.625 553.99 595.637 555.094 599.581 556.206C602.199 556.963 604.792 557.706 607.346 558.462C611.172 559.609 614.921 560.756 618.569 561.903C619.471 562.19 620.373 562.477 621.263 562.751C623.932 563.611 626.55 564.467 629.117 565.319C631.151 565.997 633.134 566.688 635.091 567.378C637.048 568.069 638.967 568.76 640.848 569.451C642.068 569.894 643.263 570.351 644.445 570.794C646.173 571.446 647.851 572.098 649.503 572.762C650.012 572.958 650.507 573.167 651.003 573.362C651.931 573.727 652.833 574.105 653.723 574.483C654.32 574.718 654.905 574.965 655.489 575.226C656.061 575.461 656.646 575.709 657.205 575.956C657.777 576.191 658.336 576.439 658.896 576.699C659.366 576.895 659.823 577.103 660.268 577.312C661.171 577.716 662.073 578.12 662.95 578.537C663.382 578.746 663.814 578.941 664.246 579.15L665.238 579.619C665.377 579.698 665.517 579.763 665.657 579.828C666.737 580.349 667.779 580.871 668.796 581.392C669.749 581.888 670.677 582.383 671.567 582.865C672.622 583.439 673.626 583.999 674.592 584.573C674.782 584.677 674.973 584.795 675.164 584.899C675.812 585.277 676.434 585.668 677.057 586.046C678.277 586.815 679.434 587.571 680.514 588.327C681.582 589.083 682.573 589.827 683.501 590.57C683.501 590.583 683.501 590.583 683.514 590.583C683.958 590.948 684.391 591.313 684.797 591.665C685.458 592.251 686.068 592.812 686.627 593.385C686.815 593.562 686.993 593.75 687.161 593.946C687.235 594.009 687.303 594.079 687.365 594.155C687.632 594.454 687.898 594.754 688.153 595.054C688.458 595.419 688.737 595.784 689.004 596.149C689.131 596.332 689.271 596.514 689.385 596.697C689.538 596.918 689.69 597.153 689.818 597.374C689.932 597.557 690.034 597.752 690.135 597.935C690.405 598.405 690.635 598.898 690.822 599.408C690.961 599.756 691.075 600.113 691.165 600.477C691.261 600.823 691.333 601.176 691.381 601.533Z" fill="black"/>
</g>
<defs>
<clipPath id="clip0_36_141">
<rect width="1000" height="746" fill="white"/>
</clipPath>
</defs>
</svg>
